<?xml version="1.0" encoding="UTF-8"?>
<!DOCTYPE svg PUBLIC "-//W3C//DTD SVG 1.1//EN" "http://www.w3.org/Graphics/SVG/1.1/DTD/svg11.dtd">
<!-- Creator: CorelDRAW 2021 (64-Bit) -->
<svg xmlns="http://www.w3.org/2000/svg" xml:space="preserve" width="38.8168mm" height="26.7007mm" version="1.1" style="shape-rendering:geometricPrecision; text-rendering:geometricPrecision; image-rendering:optimizeQuality; fill-rule:evenodd; clip-rule:evenodd"
viewBox="0 0 1797.12 1236.17"
 xmlns:xlink="http://www.w3.org/1999/xlink"
 xmlns:xodm="http://www.corel.com/coreldraw/odm/2003">
 <defs>
  <style type="text/css">
   <![CDATA[
    .fil0 {fill:white;fill-rule:nonzero}
   ]]>
  </style>
 </defs>
 <g id="Capa_x0020_1">
  <metadata id="CorelCorpID_0Corel-Layer"/>
  <path class="fil0" d="M1797.12 1112.73l-129.63 0 0 -971.2 129.63 0 0 971.2zm-64.99 -1112.73c26.37,0 47.74,21.38 47.74,47.75 0,26.37 -21.37,47.74 -47.74,47.74 -26.37,0 -47.74,-21.37 -47.74,-47.74 0,-26.37 21.38,-47.75 47.74,-47.75zm-0.03 1140.69c26.37,0 47.75,21.37 47.75,47.74 0,26.37 -21.38,47.74 -47.75,47.74 -26.37,0 -47.74,-21.38 -47.74,-47.74 0,-26.37 21.38,-47.74 47.74,-47.74zm-305.4 -942.83c43.65,6.51 79.05,23.66 106.21,51.44 35.46,36.28 53.2,86.63 53.2,151.04l0 77.04 -124.74 6.12 0 -69.71c0,-66.04 -24.46,-99.06 -73.38,-99.06 -23.65,0 -41.79,7.34 -54.42,22.01 -12.64,14.68 -18.95,36.28 -18.95,64.82l0 467.17c0,28.53 6.31,50.14 18.95,64.81 12.63,14.68 30.77,22.02 54.42,22.02 48.92,0 73.38,-33.02 73.38,-99.06l0 -95.39 124.74 6.12 0 102.73c0,64.4 -17.74,114.75 -53.2,151.03 -35.46,36.28 -85,54.42 -148.59,54.42 -62.78,0 -111.7,-17.94 -146.75,-53.81 -35.06,-35.88 -52.59,-86.42 -52.59,-151.65l0 -469.62c0,-65.22 17.53,-115.78 52.59,-151.65 16.19,-16.57 35.34,-29.31 57.45,-38.23 47.41,-3.58 91.54,-7.82 131.68,-12.6zm-306.71 865.31l-127.19 0 -169.99 -567.45 -2.44 0 0 567.45 -122.29 0 0 -843.29c47.95,1.81 97.85,3.03 149.22,3.6l147.96 493.6 2.44 0 0 -493.86c41.89,-0.61 82.76,-1.65 122.3,-3.1l0 843.06zm-507.37 -192c0,66.04 -17.73,116.59 -53.21,151.65 -35.46,35.06 -84.99,52.58 -148.58,52.58 -61.97,0 -110.68,-17.52 -146.15,-52.58 -35.46,-35.06 -53.2,-85.61 -53.2,-151.65l0 -664.07 124.74 0 0 660.4c0,57.08 24.46,85.61 73.38,85.61 48.92,0 73.38,-28.53 73.38,-85.61l0 -660.4 4.59 0c39.22,3.42 81.07,6.38 125.04,8.82l0 655.26zm931.99 223.23c-426.69,36.99 -858.1,35.91 -1293.57,0l0 -8.19c433.59,33.95 865.17,36.15 1293.57,0l0 8.19zm0 -932.21c-425.29,38.71 -856.53,37.76 -1293.57,0l0 -8.19c441.17,38.3 872.6,39.27 1293.57,0l0 8.19zm-1414.98 950.53l-129.63 0 0 -971.2 129.63 0 0 971.2zm-64.98 -1112.73c26.37,0 47.74,21.38 47.74,47.75 0,26.37 -21.38,47.74 -47.74,47.74 -26.37,0 -47.74,-21.37 -47.74,-47.74 0,-26.37 21.37,-47.75 47.74,-47.75zm-0.03 1140.69c26.37,0 47.74,21.37 47.74,47.74 0,26.37 -21.38,47.74 -47.74,47.74 -26.37,0 -47.75,-21.38 -47.75,-47.74 0,-26.37 21.38,-47.74 47.75,-47.74z"/>
 </g>
</svg>
